<?xml version="1.0" encoding="UTF-8"?>
<svg width="438px" height="281px" viewBox="0 0 438 281" version="1.1" xmlns="http://www.w3.org/2000/svg" xmlns:xlink="http://www.w3.org/1999/xlink">
    <!-- Generator: Sketch 52.5 (67469) - http://www.bohemiancoding.com/sketch -->
    <title>pear</title>
    <desc>Created with Sketch.</desc>
    <g id="Page-1" stroke="none" stroke-width="1" fill="none" fill-rule="evenodd">
        <g id="pear" transform="translate(219.000000, 140.500000) rotate(90.000000) translate(-219.000000, -140.500000) translate(78.500000, -78.500000)">
            <path d="M169.902344,1.828125 C166.265625,-0.902344 161.109375,-0.160156 158.371094,3.472656 C157.292969,4.910156 132.003906,39.203125 132.003906,89.609375 L132.003906,100.207031 L148.484375,100.207031 L148.484375,89.609375 C148.484375,44.90625 171.332031,13.660156 171.550781,13.359375 C174.285156,9.722656 173.546875,4.554688 169.902344,1.828125 Z" id="Path" fill="#D29B6E"></path>
            <path d="M158.371094,3.472656 C157.921875,4.070312 153.28125,10.386719 148.015625,21.171875 C145.332031,26.667969 149.316406,33.132812 155.433594,33.132812 C158.574219,33.132812 161.472656,31.335938 162.84375,28.511719 C167.476562,18.976562 171.460938,13.484375 171.550781,13.363281 C174.285156,9.722656 173.546875,4.554688 169.902344,1.828125 C166.265625,-0.902344 161.109375,-0.160156 158.371094,3.472656 Z" id="Path" fill="#B67F5F"></path>
            <path d="M140.246094,83.730469 C99.976562,83.730469 88.980469,126.15625 77.730469,154.132812 C63.578125,189.328125 44.648438,191.992188 16.398438,247.238281 C-21.347656,321.046875 8.140625,438 91.082031,438 C117.246094,438 120.476562,428.914062 140.246094,428.914062 C160.015625,428.914062 163.246094,438 189.410156,438 C272.351562,438 301.835938,321.046875 264.09375,247.238281 C235.839844,191.992188 216.914062,189.332031 202.757812,154.132812 C191.511719,126.15625 180.515625,83.730469 140.246094,83.730469 Z" id="Path" fill="#9AC895"></path>
            <path d="M249.421875,254.742188 C235.570312,227.65625 224.269531,214.191406 214.300781,202.308594 C204.496094,190.628906 195.238281,179.597656 187.472656,160.277344 C186.167969,157.042969 184.871094,153.621094 183.535156,150.09375 C172.109375,119.960938 162.925781,100.210938 140.246094,100.210938 C117.566406,100.210938 108.378906,119.960938 96.957031,150.09375 C95.617188,153.621094 94.320312,157.042969 93.019531,160.277344 C85.25,179.597656 75.992188,190.628906 66.191406,202.308594 C56.21875,214.191406 44.917969,227.65625 31.066406,254.742188 C10.539062,294.878906 11.957031,350.679688 34.4375,387.425781 C43.953125,402.980469 61.503906,421.523438 91.082031,421.523438 C102.28125,421.523438 107.703125,419.625 113.984375,417.429688 C114.035156,417.410156 114.085938,417.394531 114.136719,417.375 C124.8125,413.644531 132.007812,403.621094 132.007812,392.3125 C132.007812,387.761719 135.691406,384.070312 140.246094,384.070312 C144.800781,384.070312 148.484375,387.761719 148.484375,392.3125 C148.484375,403.621094 155.679688,413.644531 166.355469,417.375 C166.40625,417.394531 166.453125,417.410156 166.503906,417.429688 C172.785156,419.625 178.210938,421.523438 189.410156,421.523438 C218.988281,421.523438 236.539062,402.980469 246.054688,387.425781 C268.53125,350.679688 269.949219,294.878906 249.421875,254.742188 Z" id="Path" fill="#CFF1CA"></path>
            <path d="M156.722656,338.105469 C156.722656,352.621094 147.515625,359.902344 142.867188,370.765625 C141.863281,373.105469 138.625,373.105469 137.625,370.765625 C132.972656,359.902344 123.769531,352.621094 123.769531,338.105469 C123.769531,323.589844 132.972656,316.308594 137.625,305.445312 C138.625,303.105469 141.867188,303.105469 142.867188,305.445312 C147.515625,316.304688 156.722656,323.589844 156.722656,338.105469 Z" id="Path" fill="#CFF1CA"></path>
            <g id="Group" transform="translate(118.000000, 311.000000)" fill="#B67F5F">
                <path d="M9.132812,26.082031 C7.867188,26.195312 6.558594,26.019531 5.292969,25.503906 C1.085938,23.785156 -0.9375,18.980469 0.777344,14.765625 C2.339844,10.9375 4.25,7.546875 5.738281,5.023438 C8.042969,1.105469 13.089844,-0.191406 17.019531,2.113281 C20.9375,4.425781 22.246094,9.480469 19.929688,13.398438 C18.140625,16.429688 16.9375,18.769531 16.035156,20.984375 C14.832031,23.941406 12.105469,25.816406 9.132812,26.082031 Z" id="Path"></path>
                <path d="M34.933594,26.082031 C36.199219,26.195312 37.511719,26.019531 38.773438,25.503906 C42.984375,23.785156 45.003906,18.980469 43.289062,14.765625 C41.726562,10.9375 39.816406,7.546875 38.332031,5.023438 C36.023438,1.105469 30.980469,-0.191406 27.046875,2.113281 C23.132812,4.425781 21.824219,9.480469 24.140625,13.398438 C25.925781,16.429688 27.128906,18.769531 28.03125,20.984375 C29.238281,23.941406 31.960938,25.816406 34.933594,26.082031 Z" id="Path"></path>
            </g>
        </g>
    </g>
</svg>